HIERARCHY
ROOT Hips
{
  OFFSET 17.510 4.817 -292.942
  CHANNELS 6 Xposition Yposition Zposition Zrotation Xrotation Yrotation
  JOINT LeftUpLeg
  {
    OFFSET 8.179 -7.992 1.785
    CHANNELS 6 Xposition Yposition Zposition Zrotation Xrotation Yrotation
    JOINT LeftLeg
    {
      OFFSET 0.000 -48.143 0.000
      CHANNELS 6 Xposition Yposition Zposition Zrotation Xrotation Yrotation
      JOINT LeftFoot
      {
        OFFSET -0.000 -41.773 -0.000
        CHANNELS 6 Xposition Yposition Zposition Zrotation Xrotation Yrotation
        End Site
        {
          OFFSET 0.000 -8.859 5.115
        }
      }
    }
  }
  JOINT RightUpLeg
  {
    OFFSET -8.065 -8.139 1.562
    CHANNELS 6 Xposition Yposition Zposition Zrotation Xrotation Yrotation
    JOINT RightLeg
    {
      OFFSET 0.000 -47.779 0.000
      CHANNELS 6 Xposition Yposition Zposition Zrotation Xrotation Yrotation
      JOINT RightFoot
      {
        OFFSET -0.000 -42.728 -0.000
        CHANNELS 6 Xposition Yposition Zposition Zrotation Xrotation Yrotation
        End Site
        {
          OFFSET 0.000 -8.727 5.039
        }
      }
    }
  }
  JOINT Spine
  {
    OFFSET 0.000 6.212 -6.212
    CHANNELS 6 Xposition Yposition Zposition Zrotation Xrotation Yrotation
    JOINT LeftShoulder
    {
      OFFSET -0.000 32.735 0.000
      CHANNELS 6 Xposition Yposition Zposition Zrotation Xrotation Yrotation
      JOINT LeftArm
      {
        OFFSET 18.980 0.000 -0.000
        CHANNELS 6 Xposition Yposition Zposition Zrotation Xrotation Yrotation
        JOINT LeftForeArm
        {
          OFFSET 27.741 0.000 0.000
          CHANNELS 6 Xposition Yposition Zposition Zrotation Xrotation Yrotation
          JOINT LeftHand
          {
            OFFSET 26.829 -0.000 -0.000
            CHANNELS 6 Xposition Yposition Zposition Zrotation Xrotation Yrotation
            JOINT LeftHandThumb1
            {
            OFFSET 4.970 -0.620 3.390
            CHANNELS 6 Xposition Yposition Zposition Zrotation Xrotation Yrotation
              JOINT LeftHandThumb2
              {
              OFFSET 2.150 -0.000 0.000
              CHANNELS 6 Xposition Yposition Zposition Zrotation Xrotation Yrotation
                JOINT LeftHandThumb3
                {
                OFFSET 2.200 -0.000 0.000
                CHANNELS 6 Xposition Yposition Zposition Zrotation Xrotation Yrotation
                  JOINT LeftHandThumb4
                  {
                  OFFSET 1.700 -0.000 0.000
                  CHANNELS 6 Xposition Yposition Zposition Zrotation Xrotation Yrotation
                  }
                }
              }
            }
            JOINT LeftHandIndex1
            {
            OFFSET 8.730 0.680 2.070
            CHANNELS 6 Xposition Yposition Zposition Zrotation Xrotation Yrotation
              JOINT LeftHandIndex2
              {
              OFFSET 2.670 -0.000 0.000
              CHANNELS 6 Xposition Yposition Zposition Zrotation Xrotation Yrotation
                JOINT LeftHandIndex3
                {
                OFFSET 2.130 -0.000 0.000
                CHANNELS 6 Xposition Yposition Zposition Zrotation Xrotation Yrotation
                  JOINT LeftHandIndex4
                  {
                  OFFSET 1.800 -0.000 0.000
                  CHANNELS 6 Xposition Yposition Zposition Zrotation Xrotation Yrotation
                  }
                }
              }
            }
            JOINT LeftHandMiddle1
            {
            OFFSET 9.220 0.670 0.550
            CHANNELS 6 Xposition Yposition Zposition Zrotation Xrotation Yrotation
              JOINT LeftHandMiddle2
              {
              OFFSET 2.660 -0.000 0.000
              CHANNELS 6 Xposition Yposition Zposition Zrotation Xrotation Yrotation
                JOINT LeftHandMiddle3
                {
                OFFSET 2.280 -0.000 0.000
                CHANNELS 6 Xposition Yposition Zposition Zrotation Xrotation Yrotation
                  JOINT LeftHandMiddle4
                  {
                  OFFSET 1.500 -0.000 0.000
                  CHANNELS 6 Xposition Yposition Zposition Zrotation Xrotation Yrotation
                  }
                }
              }
            }
            JOINT LeftHandRing1
            {
            OFFSET 9.250 0.670 -1.130
            CHANNELS 6 Xposition Yposition Zposition Zrotation Xrotation Yrotation
              JOINT LeftHandRing2
              {
              OFFSET 2.470 -0.000 0.000
              CHANNELS 6 Xposition Yposition Zposition Zrotation Xrotation Yrotation
                JOINT LeftHandRing3
                {
                OFFSET 2.210 -0.000 0.000
                CHANNELS 6 Xposition Yposition Zposition Zrotation Xrotation Yrotation
                  JOINT LeftHandRing4
                  {
                  OFFSET 1.800 -0.000 0.000
                  CHANNELS 6 Xposition Yposition Zposition Zrotation Xrotation Yrotation
                  }
                }
              }
            }
            JOINT LeftHandPinky1
            {
            OFFSET 9.350 0.660 -2.720
            CHANNELS 6 Xposition Yposition Zposition Zrotation Xrotation Yrotation
              JOINT LeftHandPinky2
              {
              OFFSET 1.630 -0.000 0.000
              CHANNELS 6 Xposition Yposition Zposition Zrotation Xrotation Yrotation
                JOINT LeftHandPinky3
                {
                OFFSET 1.710 -0.000 0.000
                CHANNELS 6 Xposition Yposition Zposition Zrotation Xrotation Yrotation
                  JOINT LeftHandPinky4
                  {
                  OFFSET 1.800 -0.000 0.000
                  CHANNELS 6 Xposition Yposition Zposition Zrotation Xrotation Yrotation
                  }
                }
              }
            }
          }
        }
      }
    }
    JOINT RightShoulder
    {
      OFFSET -0.000 32.735 0.000
      CHANNELS 6 Xposition Yposition Zposition Zrotation Xrotation Yrotation
      JOINT RightArm
      {
        OFFSET -18.748 0.000 -0.000
        CHANNELS 6 Xposition Yposition Zposition Zrotation Xrotation Yrotation
        JOINT RightForeArm
        {
          OFFSET -28.226 0.000 0.000
          CHANNELS 6 Xposition Yposition Zposition Zrotation Xrotation Yrotation
          JOINT RightHand
          {
            OFFSET -27.236 0.000 -0.000
            CHANNELS 6 Xposition Yposition Zposition Zrotation Xrotation Yrotation
            JOINT RightHandThumb1
            {
            OFFSET -4.970 -0.620 3.390
            CHANNELS 6 Xposition Yposition Zposition Zrotation Xrotation Yrotation
              JOINT RightHandThumb2
              {
              OFFSET -2.150 0.000 0.000
              CHANNELS 6 Xposition Yposition Zposition Zrotation Xrotation Yrotation
                JOINT RightHandThumb3
                {
                OFFSET -2.200 0.000 0.000
                CHANNELS 6 Xposition Yposition Zposition Zrotation Xrotation Yrotation
                  JOINT RightHandThumb4
                  {
                  OFFSET -1.700 0.000 0.000
                  CHANNELS 6 Xposition Yposition Zposition Zrotation Xrotation Yrotation
                  }
                }
              }
            }
            JOINT RightHandIndex1
            {
            OFFSET -8.730 0.680 2.070
            CHANNELS 6 Xposition Yposition Zposition Zrotation Xrotation Yrotation
              JOINT RightHandIndex2
              {
              OFFSET -2.670 0.000 0.000
              CHANNELS 6 Xposition Yposition Zposition Zrotation Xrotation Yrotation
                JOINT RightHandIndex3
                {
                OFFSET -2.130 0.000 0.000
                CHANNELS 6 Xposition Yposition Zposition Zrotation Xrotation Yrotation
                  JOINT RightHandIndex4
                  {
                  OFFSET -1.800 0.000 0.000
                  CHANNELS 6 Xposition Yposition Zposition Zrotation Xrotation Yrotation
                  }
                }
              }
            }
            JOINT RightHandMiddle1
            {
            OFFSET -9.220 0.670 0.550
            CHANNELS 6 Xposition Yposition Zposition Zrotation Xrotation Yrotation
              JOINT RightHandMiddle2
              {
              OFFSET -2.660 0.000 0.000
              CHANNELS 6 Xposition Yposition Zposition Zrotation Xrotation Yrotation
                JOINT RightHandMiddle3
                {
                OFFSET -2.280 0.000 0.000
                CHANNELS 6 Xposition Yposition Zposition Zrotation Xrotation Yrotation
                  JOINT RightHandMiddle4
                  {
                  OFFSET -1.500 0.000 0.000
                  CHANNELS 6 Xposition Yposition Zposition Zrotation Xrotation Yrotation
                  }
                }
              }
            }
            JOINT RightHandRing1
            {
            OFFSET -9.250 0.670 -1.130
            CHANNELS 6 Xposition Yposition Zposition Zrotation Xrotation Yrotation
              JOINT RightHandRing2
              {
              OFFSET -2.470 0.000 0.000
              CHANNELS 6 Xposition Yposition Zposition Zrotation Xrotation Yrotation
                JOINT RightHandRing3
                {
                OFFSET -2.210 0.000 0.000
                CHANNELS 6 Xposition Yposition Zposition Zrotation Xrotation Yrotation
                  JOINT RightHandRing4
                  {
                  OFFSET -1.800 0.000 0.000
                  CHANNELS 6 Xposition Yposition Zposition Zrotation Xrotation Yrotation
                  }
                }
              }
            }
            JOINT RightHandPinky1
            {
            OFFSET -9.350 0.660 -2.720
            CHANNELS 6 Xposition Yposition Zposition Zrotation Xrotation Yrotation
              JOINT RightHandPinky2
              {
              OFFSET -1.630 0.000 0.000
              CHANNELS 6 Xposition Yposition Zposition Zrotation Xrotation Yrotation
                JOINT RightHandPinky3
                {
                OFFSET -1.710 0.000 0.000
                CHANNELS 6 Xposition Yposition Zposition Zrotation Xrotation Yrotation
                  JOINT RightHandPinky4
                  {
                  OFFSET -1.800 0.000 0.000
                  CHANNELS 6 Xposition Yposition Zposition Zrotation Xrotation Yrotation
                  }
                }
              }
            }
          }
        }
      }
    }
    JOINT Neck
    {
      OFFSET -0.000 32.735 0.000
      CHANNELS 6 Xposition Yposition Zposition Zrotation Xrotation Yrotation
      JOINT Head
      {
        OFFSET -0.000 23.958 -0.000
        CHANNELS 6 Xposition Yposition Zposition Zrotation Xrotation Yrotation
        End Site
        {
          OFFSET -0.000 0.096 -0.000
        }
      }
    }
  }
}
MOTION
Frames:	5
Frame Time:	0.0333333
19.2066 -0.939173 -299.637 -1.3004 -2.41644 -3.01994 8.04084 -7.9082 2.19448 5.45139 5.22568 -1.82639 -2.6077e-06 -44.1601 -2.38419e-05 -8.38295 -2.43828 -0.359198 3.72529e-06 -37.4244 0 4.08907 6.18955 1.92219 -8.04241 -7.7618 1.83537 -4.47416 3.3345 -1.04988 2.98023e-06 -44.1241 -2.38419e-05 8.05833 4.1961 -0.593529 4.47035e-06 -39.3878 0 1.0139 -6.93129 0.689304 3.72529e-07 6.65382 -6.65381 0.113392 -5.92068 0.178335 -2.98023e-06 32.7347 2.38419e-05 -17.1406 9.39151e-06 -5.74941 19.2432 2.38419e-05 0 -62.7516 24.573 -0.0697884 28.2185 1.19209e-05 -4.76837e-05 3.91515e-06 -1.70755e-06 -21.6258 27.7734 -3.57628e-05 0 -8.22809 -0.0273789 6.52169 0.0062 0.0497 0.0339 0 0 0 0 0.0215 0 0 0 0 0 0.022 0 0 0 0 0 0.017 0 0 0 0 -0.0068 0.0873 0.0207 0 0 0 0 0.0267 0 0 0 0 0 0.0213 0 0 0 0 0 0.018 0 0 0 0 -0.0067 0.0922 0.0055 0 0 0 0 0.0266 0 0 0 0 0 0.0228 0 0 0 0 0 0.015 0 0 0 0 -0.0067 0.0925 -0.0113 0 0 0 0 0.0247 0 0 0 0 0 0.0221 0 0 0 0 0 0.018 0 0 0 0 -0.0066 0.0935 -0.0272 0 0 0 0 0.0163 0 0 0 0 0 0.0171 0 0 0 0 0 0.018 0 0 0 0 -2.98023e-06 32.7347 2.38419e-05 18.0948 -1.70755e-06 5.99597 -18.4546 0 -7.15256e-05 61.8156 -5.91971 0.764161 -29.4115 5.96046e-06 2.38419e-05 8.95934 2.61663 16.1495 -26.1429 -1.86265e-06 0 9.84673 -0.0115162 -6.46889 -0.0062 0.0497 0.0339 1.61149e-43 0 0 0 0.0215 0 0 -1.61149e-43 0 0 0.022 0 0 -1.61149e-43 0 0 0.017 0 0 0 0 0.0068 0.0873 0.0207 1.61149e-43 0 0 0 0.0267 0 3.20897e-43 0 0 0 0.0213 0 4.00771e-43 0 0 0 0.018 0 0 0 0 0.0067 0.0922 0.0055 1.61149e-43 0 0 0 0.0266 0 3.20897e-43 0 0 0 0.0228 0 4.00771e-43 0 0 0 0.015 0 0 0 0 0.0067 0.0925 -0.0113 1.61149e-43 0 0 0 0.0247 0 3.20897e-43 0 0 0 0.0221 0 4.00771e-43 0 0 0 0.018 0 0 0 0 0.0066 0.0935 -0.0272 1.61149e-43 0 0 0 0.0163 0 3.20897e-43 0 0 0 0.0171 0 4.00771e-43 0 0 0 0.018 0 0 0 0 -2.98023e-06 32.7347 2.38419e-05 -0.0651458 7.61829 0.00863681 -8.19564e-06 27.8224 0 1.00118e-05 -1.00318e-05 -2.13443e-07 
19.0346 -0.952022 -299.669 -1.27483 -2.40807 -3.05268 8.02301 -7.87851 2.20599 5.58357 5.20553 -1.91876 6.0536e-06 -44.1354 2.38419e-05 -8.47718 -2.43825 -0.363293 8.19564e-06 -37.5013 -4.76837e-05 4.08535 6.19909 1.91749 -8.02404 -7.75368 1.82264 -4.40382 3.3812 -1.13541 0 -44.1348 -2.38419e-05 8.06351 4.02617 -0.569906 -4.47035e-06 -39.383 4.76837e-05 1.12418 -6.85522 0.764648 4.84288e-06 6.65915 -6.65917 0.121962 -5.95812 0.180548 -2.23517e-06 32.7347 -4.76837e-05 -17.2063 1.06722e-05 -6.05156 19.1045 1.78814e-05 9.53674e-05 -62.6131 24.2938 0.35149 28.2453 0 -2.38419e-05 -4.54133e-07 -3.41509e-06 -21.9231 27.8083 -1.19209e-05 0 -8.64456 -0.0249597 6.66873 0.0062 0.0497 0.0339 0 0 0 0 0.0215 0 0 0 0 0 0.022 0 0 0 0 0 0.017 0 0 0 0 -0.0068 0.0873 0.0207 0 0 0 0 0.0267 0 0 0 0 0 0.0213 0 0 0 0 0 0.018 0 0 0 0 -0.0067 0.0922 0.0055 0 0 0 0 0.0266 0 0 0 0 0 0.0228 0 0 0 0 0 0.015 0 0 0 0 -0.0067 0.0925 -0.0113 0 0 0 0 0.0247 0 0 0 0 0 0.0221 0 0 0 0 0 0.018 0 0 0 0 -0.0066 0.0935 -0.0272 0 0 0 0 0.0163 0 0 0 0 0 0.0171 0 0 0 0 0 0.018 0 0 0 0 -2.23517e-06 32.7347 -4.76837e-05 17.9938 -8.53774e-07 6.25856 -18.4749 0 0 61.877 -6.15125 0.615588 -29.5184 -5.96046e-06 -4.76837e-05 8.98957 2.64178 16.2437 -26.0781 5.21541e-06 0 9.70391 -0.00777949 -6.24068 -0.0062 0.0497 0.0339 1.61149e-43 0 0 0 0.0215 0 0 -1.61149e-43 0 0 0.022 0 0 -1.61149e-43 0 0 0.017 0 0 0 0 0.0068 0.0873 0.0207 1.61149e-43 0 0 0 0.0267 0 3.20897e-43 0 0 0 0.0213 0 4.00771e-43 0 0 0 0.018 0 0 0 0 0.0067 0.0922 0.0055 1.61149e-43 0 0 0 0.0266 0 3.20897e-43 0 0 0 0.0228 0 4.00771e-43 0 0 0 0.015 0 0 0 0 0.0067 0.0925 -0.0113 1.61149e-43 0 0 0 0.0247 0 3.20897e-43 0 0 0 0.0221 0 4.00771e-43 0 0 0 0.018 0 0 0 0 0.0066 0.0935 -0.0272 1.61149e-43 0 0 0 0.0163 0 3.20897e-43 0 0 0 0.0171 0 4.00771e-43 0 0 0 0.018 0 0 0 0 -2.23517e-06 32.7347 -4.76837e-05 0.131887 7.4214 -0.0170335 1.49012e-06 27.8445 2.38419e-05 9.91845e-06 -9.28479e-06 -1.06722e-06 
18.7655 -0.980095 -299.738 -1.20155 -2.38393 -3.03368 7.99241 -7.83367 2.22032 5.73975 5.12907 -2.03796 -3.25963e-06 -44.1319 -4.76837e-05 -8.60806 -2.40614 -0.36413 0 -37.5693 -2.38419e-05 4.14408 6.16515 1.94451 -7.98972 -7.73145 1.80516 -4.33897 3.42301 -1.25151 2.98023e-06 -44.1475 -2.38419e-05 8.101 3.86788 -0.550115 0 -39.2935 0 1.25033 -6.76706 0.852384 2.79397e-06 6.66869 -6.66869 0.155179 -6.01865 0.148607 -8.56817e-06 32.7347 0 -17.2449 9.8184e-06 -6.51736 18.9703 -5.96046e-06 0 -62.5449 23.763 0.957718 28.2684 2.38419e-05 2.38419e-05 3.6572e-06 -6.83019e-06 -22.3114 27.887 -2.38419e-05 2.38419e-05 -9.20836 -0.020778 6.88924 0.0062 0.0497 0.0339 0 0 0 0 0.0215 0 0 0 0 0 0.022 0 0 0 0 0 0.017 0 0 0 0 -0.0068 0.0873 0.0207 0 0 0 0 0.0267 0 0 0 0 0 0.0213 0 0 0 0 0 0.018 0 0 0 0 -0.0067 0.0922 0.0055 0 0 0 0 0.0266 0 0 0 0 0 0.0228 0 0 0 0 0 0.015 0 0 0 0 -0.0067 0.0925 -0.0113 0 0 0 0 0.0247 0 0 0 0 0 0.0221 0 0 0 0 0 0.018 0 0 0 0 -0.0066 0.0935 -0.0272 0 0 0 0 0.0163 0 0 0 0 0 0.0171 0 0 0 0 0 0.018 0 0 0 0 -8.56817e-06 32.7347 0 17.7906 -4.26887e-06 6.70844 -18.4323 5.96046e-06 -4.76837e-05 61.9527 -6.54909 0.350485 -29.6802 2.98023e-06 7.15256e-05 9.05346 2.70458 16.4958 -26.0579 -4.47035e-06 -2.38419e-05 9.40146 -0.00221558 -5.80116 -0.0062 0.0497 0.0339 1.61149e-43 0 0 0 0.0215 0 0 -1.61149e-43 0 0 0.022 0 0 -1.61149e-43 0 0 0.017 0 0 0 0 0.0068 0.0873 0.0207 1.61149e-43 0 0 0 0.0267 0 3.20897e-43 0 0 0 0.0213 0 4.00771e-43 0 0 0 0.018 0 0 0 0 0.0067 0.0922 0.0055 1.61149e-43 0 0 0 0.0266 0 3.20897e-43 0 0 0 0.0228 0 4.00771e-43 0 0 0 0.015 0 0 0 0 0.0067 0.0925 -0.0113 1.61149e-43 0 0 0 0.0247 0 3.20897e-43 0 0 0 0.0221 0 4.00771e-43 0 0 0 0.018 0 0 0 0 0.0066 0.0935 -0.0272 1.61149e-43 0 0 0 0.0163 0 3.20897e-43 0 0 0 0.0171 0 4.00771e-43 0 0 0 0.018 0 0 0 0 -8.56817e-06 32.7347 0 0.381597 7.15942 -0.0475591 -3.72529e-07 27.8921 -2.38419e-05 9.83174e-06 -8.64446e-06 -4.26887e-07 
18.7655 -0.980095 -299.738 -1.20155 -2.38393 -3.03368 7.99241 -7.83367 2.22032 5.73975 5.12907 -2.03796 -3.25963e-06 -44.1319 -4.76837e-05 -8.60806 -2.40614 -0.36413 0 -37.5693 -2.38419e-05 4.14408 6.16515 1.94451 -7.98972 -7.73145 1.80516 -4.33897 3.42301 -1.25151 2.98023e-06 -44.1475 -2.38419e-05 8.101 3.86788 -0.550115 0 -39.2935 0 1.25033 -6.76706 0.852384 2.79397e-06 6.66869 -6.66869 0.155179 -6.01865 0.148607 -8.56817e-06 32.7347 0 -17.2449 9.8184e-06 -6.51736 18.9703 -5.96046e-06 0 -62.5449 23.763 0.957718 28.2684 2.38419e-05 2.38419e-05 3.6572e-06 -6.83019e-06 -22.3114 27.887 -2.38419e-05 2.38419e-05 -9.20836 -0.020778 6.88924 0.0062 0.0497 0.0339 0 0 0 0 0.0215 0 0 0 0 0 0.022 0 0 0 0 0 0.017 0 0 0 0 -0.0068 0.0873 0.0207 0 0 0 0 0.0267 0 0 0 0 0 0.0213 0 0 0 0 0 0.018 0 0 0 0 -0.0067 0.0922 0.0055 0 0 0 0 0.0266 0 0 0 0 0 0.0228 0 0 0 0 0 0.015 0 0 0 0 -0.0067 0.0925 -0.0113 0 0 0 0 0.0247 0 0 0 0 0 0.0221 0 0 0 0 0 0.018 0 0 0 0 -0.0066 0.0935 -0.0272 0 0 0 0 0.0163 0 0 0 0 0 0.0171 0 0 0 0 0 0.018 0 0 0 0 -8.56817e-06 32.7347 0 17.7906 -4.26887e-06 6.70844 -18.4323 5.96046e-06 -4.76837e-05 61.9527 -6.54909 0.350485 -29.6802 2.98023e-06 7.15256e-05 9.05346 2.70458 16.4958 -26.0579 -4.47035e-06 -2.38419e-05 9.40146 -0.00221558 -5.80116 -0.0062 0.0497 0.0339 1.61149e-43 0 0 0 0.0215 0 0 -1.61149e-43 0 0 0.022 0 0 -1.61149e-43 0 0 0.017 0 0 0 0 0.0068 0.0873 0.0207 1.61149e-43 0 0 0 0.0267 0 3.20897e-43 0 0 0 0.0213 0 4.00771e-43 0 0 0 0.018 0 0 0 0 0.0067 0.0922 0.0055 1.61149e-43 0 0 0 0.0266 0 3.20897e-43 0 0 0 0.0228 0 4.00771e-43 0 0 0 0.015 0 0 0 0 0.0067 0.0925 -0.0113 1.61149e-43 0 0 0 0.0247 0 3.20897e-43 0 0 0 0.0221 0 4.00771e-43 0 0 0 0.018 0 0 0 0 0.0066 0.0935 -0.0272 1.61149e-43 0 0 0 0.0163 0 3.20897e-43 0 0 0 0.0171 0 4.00771e-43 0 0 0 0.018 0 0 0 0 -8.56817e-06 32.7347 0 0.381597 7.15942 -0.0475591 -3.72529e-07 27.8921 -2.38419e-05 9.83174e-06 -8.64446e-06 -4.26887e-07 
18.6149 -0.995593 -299.791 -1.14101 -2.34905 -2.97716 7.9769 -7.80946 2.23246 5.79545 5.05008 -2.12577 3.05008e-06 -44.1414 -7.15256e-05 -8.66349 -2.40677 -0.366604 7.45058e-07 -37.6025 -7.15256e-05 4.2223 6.11067 1.98361 -7.97407 -7.71942 1.79164 -4.33649 3.40734 -1.34511 4.47035e-06 -44.1376 -2.38419e-05 8.16216 3.78677 -0.542718 2.98023e-06 -39.2645 -4.76837e-05 1.29308 -6.72581 0.882806 -5.21541e-06 6.67417 -6.67408 0.177054 -6.04371 0.132735 -1.11759e-06 32.7347 -4.76837e-05 -17.2408 1.23797e-05 -6.73016 18.9566 -2.38419e-05 -2.38419e-05 -62.5611 23.5008 1.17813 28.2694 1.19209e-05 0 3.4268e-06 -5.12264e-06 -22.4388 27.9304 0 2.38419e-05 -9.45367 -0.0180658 6.97787 0.0062 0.0497 0.0339 0 0 0 0 0.0215 0 0 0 0 0 0.022 0 0 0 0 0 0.017 0 0 0 0 -0.0068 0.0873 0.0207 0 0 0 0 0.0267 0 0 0 0 0 0.0213 0 0 0 0 0 0.018 0 0 0 0 -0.0067 0.0922 0.0055 0 0 0 0 0.0266 0 0 0 0 0 0.0228 0 0 0 0 0 0.015 0 0 0 0 -0.0067 0.0925 -0.0113 0 0 0 0 0.0247 0 0 0 0 0 0.0221 0 0 0 0 0 0.018 0 0 0 0 -0.0066 0.0935 -0.0272 0 0 0 0 0.0163 0 0 0 0 0 0.0171 0 0 0 0 0 0.018 0 0 0 0 -1.11759e-06 32.7347 -4.76837e-05 17.7427 8.53774e-07 6.94461 -18.374 5.96046e-06 2.38419e-05 61.7688 -6.76 0.211905 -29.7229 5.96046e-06 -4.76837e-05 9.07238 2.76416 16.8049 -25.7234 2.6077e-06 0 9.23063 -0.00105827 -5.65505 -0.0062 0.0497 0.0339 1.61149e-43 0 0 0 0.0215 0 0 -1.61149e-43 0 0 0.022 0 0 -1.61149e-43 0 0 0.017 0 0 0 0 0.0068 0.0873 0.0207 1.61149e-43 0 0 0 0.0267 0 3.20897e-43 0 0 0 0.0213 0 4.00771e-43 0 0 0 0.018 0 0 0 0 0.0067 0.0922 0.0055 1.61149e-43 0 0 0 0.0266 0 3.20897e-43 0 0 0 0.0228 0 4.00771e-43 0 0 0 0.015 0 0 0 0 0.0067 0.0925 -0.0113 1.61149e-43 0 0 0 0.0247 0 3.20897e-43 0 0 0 0.0221 0 4.00771e-43 0 0 0 0.018 0 0 0 0 0.0066 0.0935 -0.0272 1.61149e-43 0 0 0 0.0163 0 3.20897e-43 0 0 0 0.0171 0 4.00771e-43 0 0 0 0.018 0 0 0 0 -1.11759e-06 32.7347 -4.76837e-05 0.48883 6.98696 -0.0594629 -4.84288e-06 27.9474 4.76837e-05 1.01919e-05 -1.09923e-05 2.13443e-07 
